<svg width="151" height="36" viewBox="0 0 151 36" fill="none" xmlns="http://www.w3.org/2000/svg">
<g clip-path="url(#clip0_0_418)">
<path d="M14.0788 7.23113C14.0183 7.00434 13.8954 6.76268 13.8045 6.55111C12.7167 3.93689 10.3399 3 8.42078 3C5.85165 3 3.02206 4.72271 2.64429 8.27362V8.99909C2.64429 9.02937 2.65472 9.30134 2.66954 9.43738C2.88131 11.1297 4.21665 12.9282 5.21393 14.6205C6.28686 16.4336 7.40018 18.2171 8.50319 20C9.18332 18.8365 9.86101 17.6578 10.5257 16.5245C10.7068 16.1919 10.9171 15.8595 11.0984 15.542C11.2193 15.3306 11.4502 15.1192 11.5557 14.9226C12.6285 12.9583 14.3555 10.9788 14.3555 9.02933V8.22849C14.3555 8.01715 14.0936 7.2767 14.0788 7.23113ZM8.46781 10.873C7.71262 10.873 6.88601 10.4954 6.478 9.45252C6.41721 9.28651 6.42211 8.95384 6.42211 8.92336V8.45492C6.42211 7.12548 7.55093 6.52091 8.53295 6.52091C9.74192 6.52091 10.677 7.48815 10.677 8.69713C10.677 9.90606 9.67678 10.873 8.46781 10.873Z" fill="white"/>
<path d="M34.676 7.444H31.064V13H30.212V6.688H34.676V7.444ZM35.4283 13.06C35.2523 13.06 35.1003 12.996 34.9723 12.868C34.8523 12.74 34.7923 12.584 34.7923 12.4C34.7923 12.216 34.8523 12.064 34.9723 11.944C35.1003 11.816 35.2523 11.752 35.4283 11.752C35.6043 11.752 35.7563 11.816 35.8843 11.944C36.0123 12.064 36.0763 12.216 36.0763 12.4C36.0763 12.584 36.0123 12.74 35.8843 12.868C35.7563 12.996 35.6043 13.06 35.4283 13.06ZM44.9278 13.072C44.0958 13.072 43.3438 12.888 42.6718 12.52C42.0078 12.152 41.4838 11.644 41.0998 10.996C40.7238 10.34 40.5358 9.608 40.5358 8.8C40.5358 7.992 40.7238 7.264 41.0998 6.616C41.4838 5.96 42.0118 5.448 42.6838 5.08C43.3558 4.712 44.1078 4.528 44.9398 4.528C45.5638 4.528 46.1398 4.632 46.6678 4.84C47.1958 5.048 47.6438 5.352 48.0118 5.752L47.4478 6.316C46.7918 5.652 45.9638 5.32 44.9638 5.32C44.2998 5.32 43.6958 5.472 43.1518 5.776C42.6078 6.08 42.1798 6.496 41.8678 7.024C41.5638 7.552 41.4118 8.144 41.4118 8.8C41.4118 9.456 41.5638 10.048 41.8678 10.576C42.1798 11.104 42.6078 11.52 43.1518 11.824C43.6958 12.128 44.2998 12.28 44.9638 12.28C45.9718 12.28 46.7998 11.944 47.4478 11.272L48.0118 11.836C47.6438 12.236 47.1918 12.544 46.6558 12.76C46.1278 12.968 45.5518 13.072 44.9278 13.072ZM51.7199 6.64C52.5439 6.64 53.1759 6.848 53.6159 7.264C54.0559 7.672 54.2759 8.28 54.2759 9.088V13H53.4599V12.016C53.2679 12.344 52.9839 12.6 52.6079 12.784C52.2399 12.968 51.7999 13.06 51.2879 13.06C50.5839 13.06 50.0239 12.892 49.6079 12.556C49.1919 12.22 48.9839 11.776 48.9839 11.224C48.9839 10.688 49.1759 10.256 49.5599 9.928C49.9519 9.6 50.5719 9.436 51.4199 9.436H53.4239V9.052C53.4239 8.508 53.2719 8.096 52.9679 7.816C52.6639 7.528 52.2199 7.384 51.6359 7.384C51.2359 7.384 50.8519 7.452 50.4839 7.588C50.1159 7.716 49.7999 7.896 49.5359 8.128L49.1519 7.492C49.4719 7.22 49.8559 7.012 50.3039 6.868C50.7519 6.716 51.2239 6.64 51.7199 6.64ZM51.4199 12.388C51.8999 12.388 52.3119 12.28 52.6559 12.064C52.9999 11.84 53.2559 11.52 53.4239 11.104V10.072H51.4439C50.3639 10.072 49.8239 10.448 49.8239 11.2C49.8239 11.568 49.9639 11.86 50.2439 12.076C50.5239 12.284 50.9159 12.388 51.4199 12.388ZM56.544 6.688H57.396V9.484H61.368V6.688H62.22V13H61.368V10.216H57.396V13H56.544V6.688ZM66.9337 10.192H65.4937V13H64.6417V6.688H65.4937V9.46H66.9457L69.1657 6.688H70.0897L67.6057 9.748L70.2697 13H69.2617L66.9337 10.192ZM75.9254 7.444H73.5374V13H72.6854V7.444H70.2974V6.688H75.9254V7.444ZM87.5699 4.6V13H86.6939V5.368H81.3779V13H80.5019V4.6H87.5699ZM95.7203 10.108H90.4403C90.4883 10.764 90.7403 11.296 91.1963 11.704C91.6523 12.104 92.2283 12.304 92.9243 12.304C93.3163 12.304 93.6763 12.236 94.0043 12.1C94.3323 11.956 94.6163 11.748 94.8563 11.476L95.3363 12.028C95.0563 12.364 94.7043 12.62 94.2803 12.796C93.8643 12.972 93.4043 13.06 92.9003 13.06C92.2523 13.06 91.6763 12.924 91.1723 12.652C90.6763 12.372 90.2883 11.988 90.0083 11.5C89.7283 11.012 89.5883 10.46 89.5883 9.844C89.5883 9.228 89.7203 8.676 89.9843 8.188C90.2563 7.7 90.6243 7.32 91.0883 7.048C91.5603 6.776 92.0883 6.64 92.6723 6.64C93.2563 6.64 93.7803 6.776 94.2443 7.048C94.7083 7.32 95.0723 7.7 95.3363 8.188C95.6003 8.668 95.7323 9.22 95.7323 9.844L95.7203 10.108ZM92.6723 7.372C92.0643 7.372 91.5523 7.568 91.1363 7.96C90.7283 8.344 90.4963 8.848 90.4403 9.472H94.9163C94.8603 8.848 94.6243 8.344 94.2083 7.96C93.8003 7.568 93.2883 7.372 92.6723 7.372ZM101.777 7.444H99.389V13H98.537V7.444H96.149V6.688H101.777V7.444ZM108.236 10.108H102.956C103.004 10.764 103.256 11.296 103.712 11.704C104.168 12.104 104.744 12.304 105.44 12.304C105.832 12.304 106.192 12.236 106.52 12.1C106.848 11.956 107.132 11.748 107.372 11.476L107.852 12.028C107.572 12.364 107.22 12.62 106.796 12.796C106.38 12.972 105.92 13.06 105.416 13.06C104.768 13.06 104.192 12.924 103.688 12.652C103.192 12.372 102.804 11.988 102.524 11.5C102.244 11.012 102.104 10.46 102.104 9.844C102.104 9.228 102.236 8.676 102.5 8.188C102.772 7.7 103.14 7.32 103.604 7.048C104.076 6.776 104.604 6.64 105.188 6.64C105.772 6.64 106.296 6.776 106.76 7.048C107.224 7.32 107.588 7.7 107.852 8.188C108.116 8.668 108.248 9.22 108.248 9.844L108.236 10.108ZM105.188 7.372C104.58 7.372 104.068 7.568 103.652 7.96C103.244 8.344 103.012 8.848 102.956 9.472H107.432C107.376 8.848 107.14 8.344 106.724 7.96C106.316 7.568 105.804 7.372 105.188 7.372ZM113.386 6.64C113.978 6.64 114.514 6.776 114.994 7.048C115.474 7.312 115.85 7.688 116.122 8.176C116.394 8.664 116.53 9.22 116.53 9.844C116.53 10.476 116.394 11.036 116.122 11.524C115.85 12.012 115.474 12.392 114.994 12.664C114.522 12.928 113.986 13.06 113.386 13.06C112.874 13.06 112.41 12.956 111.994 12.748C111.586 12.532 111.25 12.22 110.986 11.812V15.328H110.134V6.688H110.95V7.936C111.206 7.52 111.542 7.2 111.958 6.976C112.382 6.752 112.858 6.64 113.386 6.64ZM113.326 12.304C113.766 12.304 114.166 12.204 114.526 12.004C114.886 11.796 115.166 11.504 115.366 11.128C115.574 10.752 115.678 10.324 115.678 9.844C115.678 9.364 115.574 8.94 115.366 8.572C115.166 8.196 114.886 7.904 114.526 7.696C114.166 7.488 113.766 7.384 113.326 7.384C112.878 7.384 112.474 7.488 112.114 7.696C111.762 7.904 111.482 8.196 111.274 8.572C111.074 8.94 110.974 9.364 110.974 9.844C110.974 10.324 111.074 10.752 111.274 11.128C111.482 11.504 111.762 11.796 112.114 12.004C112.474 12.204 112.878 12.304 113.326 12.304ZM121.42 6.844C122.004 6.844 122.524 6.976 122.98 7.24C123.444 7.496 123.804 7.86 124.06 8.332C124.316 8.796 124.444 9.328 124.444 9.928C124.444 10.544 124.308 11.092 124.036 11.572C123.772 12.044 123.4 12.412 122.92 12.676C122.44 12.94 121.888 13.072 121.264 13.072C120.216 13.072 119.404 12.704 118.828 11.968C118.252 11.232 117.964 10.216 117.964 8.92C117.964 7.568 118.22 6.532 118.732 5.812C119.252 5.092 120.06 4.604 121.156 4.348L123.988 3.7L124.132 4.48L121.468 5.092C120.564 5.292 119.9 5.648 119.476 6.16C119.052 6.664 118.82 7.412 118.78 8.404C119.036 7.916 119.392 7.536 119.848 7.264C120.304 6.984 120.828 6.844 121.42 6.844ZM121.288 12.364C121.728 12.364 122.12 12.264 122.464 12.064C122.816 11.856 123.088 11.568 123.28 11.2C123.48 10.832 123.58 10.416 123.58 9.952C123.58 9.488 123.484 9.08 123.292 8.728C123.1 8.376 122.828 8.104 122.476 7.912C122.132 7.712 121.736 7.612 121.288 7.612C120.84 7.612 120.44 7.712 120.088 7.912C119.744 8.104 119.472 8.376 119.272 8.728C119.08 9.08 118.984 9.488 118.984 9.952C118.984 10.416 119.08 10.832 119.272 11.2C119.472 11.568 119.748 11.856 120.1 12.064C120.452 12.264 120.848 12.364 121.288 12.364ZM131.459 6.688L128.303 13.756C128.047 14.348 127.751 14.768 127.415 15.016C127.079 15.264 126.675 15.388 126.203 15.388C125.899 15.388 125.615 15.34 125.351 15.244C125.087 15.148 124.859 15.004 124.667 14.812L125.063 14.176C125.383 14.496 125.767 14.656 126.215 14.656C126.503 14.656 126.747 14.576 126.947 14.416C127.155 14.256 127.347 13.984 127.523 13.6L127.799 12.988L124.979 6.688H125.867L128.243 12.052L130.619 6.688H131.459ZM136.038 6.64C136.63 6.64 137.166 6.776 137.646 7.048C138.126 7.312 138.502 7.688 138.774 8.176C139.046 8.664 139.182 9.22 139.182 9.844C139.182 10.476 139.046 11.036 138.774 11.524C138.502 12.012 138.126 12.392 137.646 12.664C137.174 12.928 136.638 13.06 136.038 13.06C135.526 13.06 135.062 12.956 134.646 12.748C134.238 12.532 133.902 12.22 133.638 11.812V15.328H132.786V6.688H133.602V7.936C133.858 7.52 134.194 7.2 134.61 6.976C135.034 6.752 135.51 6.64 136.038 6.64ZM135.978 12.304C136.418 12.304 136.818 12.204 137.178 12.004C137.538 11.796 137.818 11.504 138.018 11.128C138.226 10.752 138.33 10.324 138.33 9.844C138.33 9.364 138.226 8.94 138.018 8.572C137.818 8.196 137.538 7.904 137.178 7.696C136.818 7.488 136.418 7.384 135.978 7.384C135.53 7.384 135.126 7.488 134.766 7.696C134.414 7.904 134.134 8.196 133.926 8.572C133.726 8.94 133.626 9.364 133.626 9.844C133.626 10.324 133.726 10.752 133.926 11.128C134.134 11.504 134.414 11.796 134.766 12.004C135.126 12.204 135.53 12.304 135.978 12.304ZM145.477 7.444H141.865V13H141.013V6.688H145.477V7.444ZM146.241 11.752C146.425 11.752 146.577 11.816 146.697 11.944C146.817 12.064 146.877 12.216 146.877 12.4C146.877 12.496 146.861 12.6 146.829 12.712C146.805 12.824 146.765 12.952 146.709 13.096L146.205 14.752H145.629L146.037 13.012C145.909 12.972 145.805 12.9 145.725 12.796C145.645 12.684 145.605 12.552 145.605 12.4C145.605 12.216 145.665 12.064 145.785 11.944C145.905 11.816 146.057 11.752 146.241 11.752ZM35.576 24.688L32.42 31.756C32.164 32.348 31.868 32.768 31.532 33.016C31.196 33.264 30.792 33.388 30.32 33.388C30.016 33.388 29.732 33.34 29.468 33.244C29.204 33.148 28.976 33.004 28.784 32.812L29.18 32.176C29.5 32.496 29.884 32.656 30.332 32.656C30.62 32.656 30.864 32.576 31.064 32.416C31.272 32.256 31.464 31.984 31.64 31.6L31.916 30.988L29.096 24.688H29.984L32.36 30.052L34.736 24.688H35.576ZM41.7822 24.688V31H40.9302V25.444H37.9062L37.8222 27.004C37.7582 28.316 37.6062 29.324 37.3662 30.028C37.1262 30.732 36.6982 31.084 36.0822 31.084C35.9142 31.084 35.7102 31.052 35.4702 30.988L35.5302 30.256C35.6742 30.288 35.7742 30.304 35.8302 30.304C36.1582 30.304 36.4062 30.152 36.5742 29.848C36.7422 29.544 36.8542 29.168 36.9102 28.72C36.9662 28.272 37.0142 27.68 37.0542 26.944L37.1622 24.688H41.7822ZM44.2642 31.06C44.0882 31.06 43.9362 30.996 43.8082 30.868C43.6882 30.74 43.6282 30.584 43.6282 30.4C43.6282 30.216 43.6882 30.064 43.8082 29.944C43.9362 29.816 44.0882 29.752 44.2642 29.752C44.4402 29.752 44.5922 29.816 44.7202 29.944C44.8482 30.064 44.9122 30.216 44.9122 30.4C44.9122 30.584 44.8482 30.74 44.7202 30.868C44.5922 30.996 44.4402 31.06 44.2642 31.06ZM52.8758 27.148H50.9558V31H50.0918V22.6H50.9558V26.368H52.8758L55.7198 22.6H56.6798L53.5598 26.68L56.8598 31H55.8398L52.8758 27.148ZM63.3729 24.688L60.2169 31.756C59.9609 32.348 59.6649 32.768 59.3289 33.016C58.9929 33.264 58.5889 33.388 58.1169 33.388C57.8129 33.388 57.5289 33.34 57.2649 33.244C57.0009 33.148 56.7729 33.004 56.5809 32.812L56.9769 32.176C57.2969 32.496 57.6809 32.656 58.1289 32.656C58.4169 32.656 58.6609 32.576 58.8609 32.416C59.0689 32.256 59.2609 31.984 59.4369 31.6L59.7129 30.988L56.8929 24.688H57.7809L60.1569 30.052L62.5329 24.688H63.3729ZM64.7003 24.688H65.5523V29.704L69.7643 24.688H70.5203V31H69.6683V25.984L65.4683 31H64.7003V24.688ZM67.5683 23.776C67.0243 23.776 66.5923 23.64 66.2723 23.368C65.9523 23.096 65.7883 22.712 65.7803 22.216H66.3923C66.4003 22.528 66.5123 22.78 66.7283 22.972C66.9443 23.156 67.2243 23.248 67.5683 23.248C67.9123 23.248 68.1923 23.156 68.4083 22.972C68.6323 22.78 68.7483 22.528 68.7563 22.216H69.3683C69.3603 22.712 69.1923 23.096 68.8643 23.368C68.5443 23.64 68.1123 23.776 67.5683 23.776ZM76.022 24.844C76.606 24.844 77.126 24.976 77.582 25.24C78.046 25.496 78.406 25.86 78.662 26.332C78.918 26.796 79.046 27.328 79.046 27.928C79.046 28.544 78.91 29.092 78.638 29.572C78.374 30.044 78.002 30.412 77.522 30.676C77.042 30.94 76.49 31.072 75.866 31.072C74.818 31.072 74.006 30.704 73.43 29.968C72.854 29.232 72.566 28.216 72.566 26.92C72.566 25.568 72.822 24.532 73.334 23.812C73.854 23.092 74.662 22.604 75.758 22.348L78.59 21.7L78.734 22.48L76.07 23.092C75.166 23.292 74.502 23.648 74.078 24.16C73.654 24.664 73.422 25.412 73.382 26.404C73.638 25.916 73.994 25.536 74.45 25.264C74.906 24.984 75.43 24.844 76.022 24.844ZM75.89 30.364C76.33 30.364 76.722 30.264 77.066 30.064C77.418 29.856 77.69 29.568 77.882 29.2C78.082 28.832 78.182 28.416 78.182 27.952C78.182 27.488 78.086 27.08 77.894 26.728C77.702 26.376 77.43 26.104 77.078 25.912C76.734 25.712 76.338 25.612 75.89 25.612C75.442 25.612 75.042 25.712 74.69 25.912C74.346 26.104 74.074 26.376 73.874 26.728C73.682 27.08 73.586 27.488 73.586 27.952C73.586 28.416 73.682 28.832 73.874 29.2C74.074 29.568 74.35 29.856 74.702 30.064C75.054 30.264 75.45 30.364 75.89 30.364ZM83.5242 26.92C84.3162 26.928 84.9202 27.104 85.3362 27.448C85.7522 27.792 85.9602 28.288 85.9602 28.936C85.9602 29.608 85.7362 30.124 85.2882 30.484C84.8402 30.844 84.2002 31.02 83.3682 31.012L80.8722 31V24.688H81.7242V26.896L83.5242 26.92ZM87.0162 24.688H87.8682V31H87.0162V24.688ZM83.3202 30.364C83.9042 30.372 84.3442 30.256 84.6402 30.016C84.9442 29.768 85.0962 29.408 85.0962 28.936C85.0962 28.472 84.9482 28.128 84.6522 27.904C84.3562 27.68 83.9122 27.564 83.3202 27.556L81.7242 27.532V30.34L83.3202 30.364ZM99.006 24.688V31H90.294V24.688H91.146V30.256H94.242V24.688H95.094V30.256H98.154V24.688H99.006ZM106.959 28.108H101.679C101.727 28.764 101.979 29.296 102.435 29.704C102.891 30.104 103.467 30.304 104.163 30.304C104.555 30.304 104.915 30.236 105.243 30.1C105.571 29.956 105.855 29.748 106.095 29.476L106.575 30.028C106.295 30.364 105.943 30.62 105.519 30.796C105.103 30.972 104.643 31.06 104.139 31.06C103.491 31.06 102.915 30.924 102.411 30.652C101.915 30.372 101.527 29.988 101.247 29.5C100.967 29.012 100.827 28.46 100.827 27.844C100.827 27.228 100.959 26.676 101.223 26.188C101.495 25.7 101.863 25.32 102.327 25.048C102.799 24.776 103.327 24.64 103.911 24.64C104.495 24.64 105.019 24.776 105.483 25.048C105.947 25.32 106.311 25.7 106.575 26.188C106.839 26.668 106.971 27.22 106.971 27.844L106.959 28.108ZM103.911 25.372C103.303 25.372 102.791 25.568 102.375 25.96C101.967 26.344 101.735 26.848 101.679 27.472H106.155C106.099 26.848 105.863 26.344 105.447 25.96C105.039 25.568 104.527 25.372 103.911 25.372ZM112.877 27.736C113.733 27.936 114.161 28.452 114.161 29.284C114.161 29.836 113.957 30.26 113.549 30.556C113.141 30.852 112.533 31 111.725 31H108.857V24.688H111.641C112.361 24.688 112.925 24.828 113.333 25.108C113.741 25.388 113.945 25.788 113.945 26.308C113.945 26.652 113.849 26.948 113.657 27.196C113.473 27.436 113.213 27.616 112.877 27.736ZM109.685 27.496H111.581C112.069 27.496 112.441 27.404 112.697 27.22C112.961 27.036 113.093 26.768 113.093 26.416C113.093 26.064 112.961 25.8 112.697 25.624C112.441 25.448 112.069 25.36 111.581 25.36H109.685V27.496ZM111.689 30.328C112.233 30.328 112.641 30.24 112.913 30.064C113.185 29.888 113.321 29.612 113.321 29.236C113.321 28.86 113.197 28.584 112.949 28.408C112.701 28.224 112.309 28.132 111.773 28.132H109.685V30.328H111.689ZM118.329 24.64C119.153 24.64 119.785 24.848 120.225 25.264C120.665 25.672 120.885 26.28 120.885 27.088V31H120.069V30.016C119.877 30.344 119.593 30.6 119.217 30.784C118.849 30.968 118.409 31.06 117.897 31.06C117.193 31.06 116.633 30.892 116.217 30.556C115.801 30.22 115.593 29.776 115.593 29.224C115.593 28.688 115.785 28.256 116.169 27.928C116.561 27.6 117.181 27.436 118.029 27.436H120.033V27.052C120.033 26.508 119.881 26.096 119.577 25.816C119.273 25.528 118.829 25.384 118.245 25.384C117.845 25.384 117.461 25.452 117.093 25.588C116.725 25.716 116.409 25.896 116.145 26.128L115.761 25.492C116.081 25.22 116.465 25.012 116.913 24.868C117.361 24.716 117.833 24.64 118.329 24.64ZM118.029 30.388C118.509 30.388 118.921 30.28 119.265 30.064C119.609 29.84 119.865 29.52 120.033 29.104V28.072H118.053C116.973 28.072 116.433 28.448 116.433 29.2C116.433 29.568 116.573 29.86 116.853 30.076C117.133 30.284 117.525 30.388 118.029 30.388ZM128.562 26.2C129.442 26.248 130.11 26.488 130.566 26.92C131.03 27.344 131.262 27.9 131.262 28.588C131.262 29.068 131.146 29.496 130.914 29.872C130.682 30.24 130.338 30.532 129.882 30.748C129.426 30.964 128.87 31.072 128.214 31.072C127.606 31.072 127.03 30.976 126.486 30.784C125.95 30.584 125.518 30.32 125.19 29.992L125.61 29.308C125.89 29.596 126.262 29.832 126.726 30.016C127.19 30.192 127.686 30.28 128.214 30.28C128.902 30.28 129.434 30.132 129.81 29.836C130.186 29.532 130.374 29.116 130.374 28.588C130.374 28.068 130.186 27.66 129.81 27.364C129.434 27.068 128.866 26.92 128.106 26.92H127.506V26.284L129.834 23.368H125.538V22.6H130.938V23.212L128.562 26.2ZM134.807 22.6V31H133.943V23.368H131.963V22.6H134.807Z" fill="white"/>
</g>
<defs>
<clipPath id="clip0_0_418">
<rect width="151" height="36" fill="white"/>
</clipPath>
</defs>
</svg>
