<svg width="179" height="31" viewBox="0 0 179 31" fill="none" xmlns="http://www.w3.org/2000/svg">
<path d="M8.862 23.168C7.392 23.168 6.062 22.846 4.872 22.202C3.696 21.544 2.772 20.648 2.1 19.514C1.428 18.366 1.092 17.078 1.092 15.65C1.092 14.222 1.428 12.941 2.1 11.807C2.772 10.659 3.703 9.763 4.893 9.119C6.083 8.461 7.413 8.132 8.883 8.132C10.031 8.132 11.081 8.328 12.033 8.72C12.985 9.098 13.797 9.665 14.469 10.421L13.104 11.744C11.998 10.582 10.619 10.001 8.967 10.001C7.875 10.001 6.888 10.246 6.006 10.736C5.124 11.226 4.431 11.905 3.927 12.773C3.437 13.627 3.192 14.586 3.192 15.65C3.192 16.714 3.437 17.68 3.927 18.548C4.431 19.402 5.124 20.074 6.006 20.564C6.888 21.054 7.875 21.299 8.967 21.299C10.605 21.299 11.984 20.711 13.104 19.535L14.469 20.858C13.797 21.614 12.978 22.188 12.012 22.58C11.06 22.972 10.01 23.168 8.862 23.168ZM26.0891 11.87V23H24.0731V13.634H19.2851L19.1591 16.112C19.0891 17.61 18.9561 18.863 18.7601 19.871C18.5641 20.865 18.2421 21.663 17.7941 22.265C17.3461 22.867 16.7231 23.168 15.9251 23.168C15.5611 23.168 15.1481 23.105 14.6861 22.979L14.8121 21.278C14.9941 21.32 15.1621 21.341 15.3161 21.341C15.8761 21.341 16.2961 21.096 16.5761 20.606C16.8561 20.116 17.0381 19.535 17.1221 18.863C17.2061 18.191 17.2831 17.232 17.3531 15.986L17.5421 11.87H26.0891ZM33.9562 11.765C35.4962 11.765 36.6722 12.143 37.4842 12.899C38.3102 13.655 38.7232 14.782 38.7232 16.28V23H36.8122V21.53C36.4762 22.048 35.9932 22.447 35.3632 22.727C34.7472 22.993 34.0122 23.126 33.1582 23.126C31.9122 23.126 30.9112 22.825 30.1552 22.223C29.4132 21.621 29.0422 20.83 29.0422 19.85C29.0422 18.87 29.3992 18.086 30.1132 17.498C30.8272 16.896 31.9612 16.595 33.5152 16.595H36.7072V16.196C36.7072 15.328 36.4552 14.663 35.9512 14.201C35.4472 13.739 34.7052 13.508 33.7252 13.508C33.0672 13.508 32.4232 13.62 31.7932 13.844C31.1632 14.054 30.6312 14.341 30.1972 14.705L29.3572 13.193C29.9312 12.731 30.6172 12.381 31.4152 12.143C32.2132 11.891 33.0602 11.765 33.9562 11.765ZM33.4942 21.572C34.2642 21.572 34.9292 21.404 35.4892 21.068C36.0492 20.718 36.4552 20.228 36.7072 19.598V18.044H33.5992C31.8912 18.044 31.0372 18.618 31.0372 19.766C31.0372 20.326 31.2542 20.767 31.6882 21.089C32.1222 21.411 32.7242 21.572 33.4942 21.572ZM53.6724 21.236V25.583H51.7824V23H42.4794V25.583H40.5684V21.236H41.1564C41.8704 21.194 42.3604 20.69 42.6264 19.724C42.8924 18.758 43.0744 17.393 43.1724 15.629L43.3404 11.87H51.9714V21.236H53.6724ZM45.0204 15.776C44.9644 17.176 44.8454 18.338 44.6634 19.262C44.4954 20.172 44.1804 20.83 43.7184 21.236H49.9554V13.634H45.1254L45.0204 15.776ZM60.6247 18.296H58.3147V23H56.2987V11.87H58.3147V16.574H60.6667L64.2787 11.87H66.4417L62.2207 17.225L66.7357 23H64.3627L60.6247 18.296ZM68.8495 11.87H70.8655V19.976L77.6905 11.87H79.5175V23H77.5015V14.894L70.6975 23H68.8495V11.87ZM83.4305 11.87H85.4465V19.976L92.2715 11.87H94.0985V23H92.0825V14.894L85.2785 23H83.4305V11.87ZM88.6385 10.421C87.6025 10.421 86.7975 10.176 86.2235 9.686C85.6495 9.182 85.3555 8.461 85.3415 7.523H86.7065C86.7205 8.041 86.8955 8.461 87.2315 8.783C87.5815 9.091 88.0435 9.245 88.6175 9.245C89.1915 9.245 89.6535 9.091 90.0035 8.783C90.3535 8.461 90.5355 8.041 90.5495 7.523H91.9565C91.9425 8.461 91.6415 9.182 91.0535 9.686C90.4655 10.176 89.6605 10.421 88.6385 10.421ZM108.502 23.126C107.368 23.126 106.353 22.881 105.457 22.391C104.575 21.901 103.882 21.229 103.378 20.375C102.874 19.507 102.622 18.527 102.622 17.435C102.622 16.343 102.874 15.37 103.378 14.516C103.882 13.648 104.575 12.976 105.457 12.5C106.353 12.01 107.368 11.765 108.502 11.765C109.51 11.765 110.406 11.968 111.19 12.374C111.988 12.78 112.604 13.368 113.038 14.138L111.505 15.125C111.155 14.593 110.721 14.194 110.203 13.928C109.685 13.662 109.111 13.529 108.481 13.529C107.753 13.529 107.095 13.69 106.507 14.012C105.933 14.334 105.478 14.796 105.142 15.398C104.82 15.986 104.659 16.665 104.659 17.435C104.659 18.219 104.82 18.912 105.142 19.514C105.478 20.102 105.933 20.557 106.507 20.879C107.095 21.201 107.753 21.362 108.481 21.362C109.111 21.362 109.685 21.229 110.203 20.963C110.721 20.697 111.155 20.298 111.505 19.766L113.038 20.732C112.604 21.502 111.988 22.097 111.19 22.517C110.406 22.923 109.51 23.126 108.502 23.126ZM125.438 11.87L120.041 24.113C119.565 25.247 119.005 26.045 118.361 26.507C117.731 26.969 116.968 27.2 116.072 27.2C115.526 27.2 114.994 27.109 114.476 26.927C113.972 26.759 113.552 26.507 113.216 26.171L114.077 24.659C114.651 25.205 115.316 25.478 116.072 25.478C116.562 25.478 116.968 25.345 117.29 25.079C117.626 24.827 117.927 24.386 118.193 23.756L118.55 22.979L113.636 11.87H115.736L119.621 20.774L123.464 11.87H125.438ZM127.502 11.87H129.518V16.595H135.86V11.87H137.876V23H135.86V18.338H129.518V23H127.502V11.87ZM153.115 21.236V25.583H151.225V23H141.922V25.583H140.011V21.236H140.599C141.313 21.194 141.803 20.69 142.069 19.724C142.335 18.758 142.517 17.393 142.615 15.629L142.783 11.87H151.414V21.236H153.115ZM144.463 15.776C144.407 17.176 144.288 18.338 144.106 19.262C143.938 20.172 143.623 20.83 143.161 21.236H149.398V13.634H144.568L144.463 15.776ZM165.674 11.87L160.277 24.113C159.801 25.247 159.241 26.045 158.597 26.507C157.967 26.969 157.204 27.2 156.308 27.2C155.762 27.2 155.23 27.109 154.712 26.927C154.208 26.759 153.788 26.507 153.452 26.171L154.313 24.659C154.887 25.205 155.552 25.478 156.308 25.478C156.798 25.478 157.204 25.345 157.526 25.079C157.862 24.827 158.163 24.386 158.429 23.756L158.786 22.979L153.872 11.87H155.972L159.857 20.774L163.7 11.87H165.674ZM172.064 18.296H169.754V23H167.738V11.87H169.754V16.574H172.106L175.718 11.87H177.881L173.66 17.225L178.175 23H175.802L172.064 18.296Z" fill="white"/>
</svg>
