<svg width="231" height="51" viewBox="0 0 231 51" fill="none" xmlns="http://www.w3.org/2000/svg">
<g clip-path="url(#clip0_0_424)">
<path d="M33.4455 18.5686C32.8247 17.9557 32.0498 17.9557 31.4329 18.5686C30.9624 19.0351 30.4919 19.5017 30.0293 19.9762C29.9028 20.1067 29.796 20.1343 29.6418 20.0473C29.3374 19.8813 29.0132 19.7468 28.7206 19.565C27.3565 18.707 26.2138 17.6038 25.2016 16.3623C24.6995 15.7455 24.2527 15.0852 23.9403 14.3419C23.8771 14.1916 23.8889 14.0928 24.0115 13.9702C24.482 13.5155 24.9407 13.049 25.4033 12.5824C26.0477 11.934 26.0477 11.1748 25.3993 10.5224C25.0316 10.1507 24.6639 9.78699 24.2962 9.41532C23.9166 9.03575 23.541 8.65222 23.1574 8.2766C22.5367 7.67166 21.7617 7.67166 21.1449 8.28056C20.6705 8.74712 20.2158 9.22554 19.7334 9.68419C19.2866 10.1073 19.0612 10.6252 19.0138 11.2302C18.9386 12.2147 19.1798 13.1438 19.5199 14.0493C20.2158 15.9234 21.2754 17.588 22.5604 19.1142C24.2962 21.1782 26.368 22.8111 28.7917 23.9894C29.883 24.5192 31.0138 24.9264 32.2435 24.9937C33.0896 25.0411 33.825 24.8276 34.4142 24.1673C34.8175 23.7166 35.2722 23.3053 35.6992 22.8744C36.3318 22.2338 36.3358 21.4589 35.7071 20.8263C34.9559 20.0711 34.2007 19.3198 33.4455 18.5686Z" fill="white"/>
<path d="M32.6905 15.4185L34.1495 15.1694C33.9202 13.829 33.2876 12.6152 32.3268 11.6505C31.3106 10.6343 30.0256 9.99377 28.6101 9.79608L28.4045 11.263C29.4997 11.4172 30.4961 11.9114 31.2829 12.6982C32.0263 13.4416 32.5126 14.3826 32.6905 15.4185Z" fill="white"/>
<path d="M34.9718 9.07613C33.2875 7.39177 31.1563 6.32817 28.8037 6L28.5981 7.46689C30.6304 7.75157 32.473 8.67283 33.928 10.1239C35.3079 11.5038 36.2133 13.2475 36.5415 15.1651L38.0005 14.916C37.617 12.6939 36.5692 10.6775 34.9718 9.07613Z" fill="white"/>
<path d="M61.36 14.64C62.0533 14.9867 62.58 15.44 62.94 16C63.3133 16.56 63.5 17.2067 63.5 17.94C63.5 18.8067 63.2533 19.5667 62.76 20.22C62.2667 20.86 61.5733 21.36 60.68 21.72C59.7867 22.0667 58.7533 22.24 57.58 22.24C56.4067 22.24 55.3733 22.0667 54.48 21.72C53.6 21.36 52.9133 20.86 52.42 20.22C51.94 19.5667 51.7 18.8067 51.7 17.94C51.7 17.2067 51.88 16.56 52.24 16C52.6133 15.44 53.14 14.9867 53.82 14.64C53.3 14.32 52.9 13.92 52.62 13.44C52.34 12.9467 52.2 12.3867 52.2 11.76C52.2 10.9467 52.4267 10.24 52.88 9.64C53.3333 9.04 53.9667 8.58 54.78 8.26C55.5933 7.92667 56.5267 7.76 57.58 7.76C58.6467 7.76 59.5867 7.92667 60.4 8.26C61.2267 8.58 61.8667 9.04 62.32 9.64C62.7733 10.24 63 10.9467 63 11.76C63 12.3867 62.86 12.9467 62.58 13.44C62.3 13.92 61.8933 14.32 61.36 14.64ZM57.58 10.14C56.9267 10.14 56.4 10.3 56 10.62C55.6133 10.9267 55.42 11.3533 55.42 11.9C55.42 12.4333 55.6133 12.8533 56 13.16C56.3867 13.4667 56.9133 13.62 57.58 13.62C58.2467 13.62 58.78 13.4667 59.18 13.16C59.58 12.8533 59.78 12.4333 59.78 11.9C59.78 11.3533 59.58 10.9267 59.18 10.62C58.78 10.3 58.2467 10.14 57.58 10.14ZM57.58 19.86C58.3933 19.86 59.0333 19.68 59.5 19.32C59.98 18.9467 60.22 18.4533 60.22 17.84C60.22 17.2267 59.98 16.74 59.5 16.38C59.0333 16.02 58.3933 15.84 57.58 15.84C56.78 15.84 56.1467 16.02 55.68 16.38C55.2133 16.74 54.98 17.2267 54.98 17.84C54.98 18.4667 55.2133 18.96 55.68 19.32C56.1467 19.68 56.78 19.86 57.58 19.86ZM73.8272 25.88C73.0272 24.6667 72.4072 23.26 71.9672 21.66C71.5405 20.06 71.3272 18.3467 71.3272 16.52C71.3272 14.6933 71.5405 12.98 71.9672 11.38C72.4072 9.76667 73.0272 8.36 73.8272 7.16H76.8072C75.9672 8.64 75.3539 10.1467 74.9672 11.68C74.5805 13.2 74.3872 14.8133 74.3872 16.52C74.3872 18.2267 74.5805 19.8467 74.9672 21.38C75.3539 22.9 75.9672 24.4 76.8072 25.88H73.8272ZM87.3756 14.64C88.069 14.9867 88.5956 15.44 88.9556 16C89.329 16.56 89.5156 17.2067 89.5156 17.94C89.5156 18.8067 89.269 19.5667 88.7756 20.22C88.2823 20.86 87.589 21.36 86.6956 21.72C85.8023 22.0667 84.769 22.24 83.5956 22.24C82.4223 22.24 81.389 22.0667 80.4956 21.72C79.6156 21.36 78.929 20.86 78.4356 20.22C77.9556 19.5667 77.7156 18.8067 77.7156 17.94C77.7156 17.2067 77.8956 16.56 78.2556 16C78.629 15.44 79.1556 14.9867 79.8356 14.64C79.3156 14.32 78.9156 13.92 78.6356 13.44C78.3556 12.9467 78.2156 12.3867 78.2156 11.76C78.2156 10.9467 78.4423 10.24 78.8956 9.64C79.349 9.04 79.9823 8.58 80.7956 8.26C81.609 7.92667 82.5423 7.76 83.5956 7.76C84.6623 7.76 85.6023 7.92667 86.4156 8.26C87.2423 8.58 87.8823 9.04 88.3356 9.64C88.789 10.24 89.0156 10.9467 89.0156 11.76C89.0156 12.3867 88.8756 12.9467 88.5956 13.44C88.3156 13.92 87.909 14.32 87.3756 14.64ZM83.5956 10.14C82.9423 10.14 82.4156 10.3 82.0156 10.62C81.629 10.9267 81.4356 11.3533 81.4356 11.9C81.4356 12.4333 81.629 12.8533 82.0156 13.16C82.4023 13.4667 82.929 13.62 83.5956 13.62C84.2623 13.62 84.7956 13.4667 85.1956 13.16C85.5956 12.8533 85.7956 12.4333 85.7956 11.9C85.7956 11.3533 85.5956 10.9267 85.1956 10.62C84.7956 10.3 84.2623 10.14 83.5956 10.14ZM83.5956 19.86C84.409 19.86 85.049 19.68 85.5156 19.32C85.9956 18.9467 86.2356 18.4533 86.2356 17.84C86.2356 17.2267 85.9956 16.74 85.5156 16.38C85.049 16.02 84.409 15.84 83.5956 15.84C82.7956 15.84 82.1623 16.02 81.6956 16.38C81.229 16.74 80.9956 17.2267 80.9956 17.84C80.9956 18.4667 81.229 18.96 81.6956 19.32C82.1623 19.68 82.7956 19.86 83.5956 19.86ZM96.3988 8V22H93.1587V10.6H90.3588V8H96.3988ZM109.291 19.36V22H98.7108V19.9L104.111 14.8C104.684 14.2533 105.071 13.7867 105.271 13.4C105.471 13 105.571 12.6067 105.571 12.22C105.571 11.66 105.377 11.2333 104.991 10.94C104.617 10.6333 104.064 10.48 103.331 10.48C102.717 10.48 102.164 10.6 101.671 10.84C101.177 11.0667 100.764 11.4133 100.431 11.88L98.0708 10.36C98.6174 9.54667 99.3708 8.91333 100.331 8.46C101.291 7.99333 102.391 7.76 103.631 7.76C104.671 7.76 105.577 7.93333 106.351 8.28C107.137 8.61333 107.744 9.09333 108.171 9.72C108.611 10.3333 108.831 11.06 108.831 11.9C108.831 12.66 108.671 13.3733 108.351 14.04C108.031 14.7067 107.411 15.4667 106.491 16.32L103.271 19.36H109.291ZM110.048 25.88C110.888 24.4 111.501 22.9 111.888 21.38C112.288 19.8467 112.488 18.2267 112.488 16.52C112.488 14.8133 112.288 13.2 111.888 11.68C111.501 10.1467 110.888 8.64 110.048 7.16H113.028C113.841 8.34667 114.461 9.74667 114.888 11.36C115.328 12.96 115.548 14.68 115.548 16.52C115.548 18.36 115.334 20.08 114.908 21.68C114.481 23.2667 113.854 24.6667 113.028 25.88H110.048ZM133.04 14.64C133.733 14.9867 134.26 15.44 134.62 16C134.993 16.56 135.18 17.2067 135.18 17.94C135.18 18.8067 134.933 19.5667 134.44 20.22C133.946 20.86 133.253 21.36 132.36 21.72C131.466 22.0667 130.433 22.24 129.26 22.24C128.086 22.24 127.053 22.0667 126.16 21.72C125.28 21.36 124.593 20.86 124.1 20.22C123.62 19.5667 123.38 18.8067 123.38 17.94C123.38 17.2067 123.56 16.56 123.92 16C124.293 15.44 124.82 14.9867 125.5 14.64C124.98 14.32 124.58 13.92 124.3 13.44C124.02 12.9467 123.88 12.3867 123.88 11.76C123.88 10.9467 124.106 10.24 124.56 9.64C125.013 9.04 125.646 8.58 126.46 8.26C127.273 7.92667 128.206 7.76 129.26 7.76C130.326 7.76 131.266 7.92667 132.08 8.26C132.906 8.58 133.546 9.04 134 9.64C134.453 10.24 134.68 10.9467 134.68 11.76C134.68 12.3867 134.54 12.9467 134.26 13.44C133.98 13.92 133.573 14.32 133.04 14.64ZM129.26 10.14C128.606 10.14 128.08 10.3 127.68 10.62C127.293 10.9267 127.1 11.3533 127.1 11.9C127.1 12.4333 127.293 12.8533 127.68 13.16C128.066 13.4667 128.593 13.62 129.26 13.62C129.926 13.62 130.46 13.4667 130.86 13.16C131.26 12.8533 131.46 12.4333 131.46 11.9C131.46 11.3533 131.26 10.9267 130.86 10.62C130.46 10.3 129.926 10.14 129.26 10.14ZM129.26 19.86C130.073 19.86 130.713 19.68 131.18 19.32C131.66 18.9467 131.9 18.4533 131.9 17.84C131.9 17.2267 131.66 16.74 131.18 16.38C130.713 16.02 130.073 15.84 129.26 15.84C128.46 15.84 127.826 16.02 127.36 16.38C126.893 16.74 126.66 17.2267 126.66 17.84C126.66 18.4667 126.893 18.96 127.36 19.32C127.826 19.68 128.46 19.86 129.26 19.86ZM149.483 19.06H147.203V22H144.043V19.06H136.503V16.88L143.103 8H146.503L140.383 16.42H144.143V13.8H147.203V16.42H149.483V19.06ZM163.272 19.06H160.992V22H157.832V19.06H150.292V16.88L156.892 8H160.292L154.172 16.42H157.932V13.8H160.992V16.42H163.272V19.06ZM164.696 15.12H170.356V17.62H164.696V15.12ZM177.071 7.76C179.031 7.76 180.564 8.36 181.671 9.56C182.778 10.7467 183.331 12.46 183.331 14.7C183.331 16.2867 183.031 17.6467 182.431 18.78C181.844 19.9133 181.011 20.7733 179.931 21.36C178.851 21.9467 177.604 22.24 176.191 22.24C175.444 22.24 174.731 22.16 174.051 22C173.371 21.8267 172.791 21.5867 172.311 21.28L173.511 18.9C174.191 19.3667 175.064 19.6 176.131 19.6C177.318 19.6 178.258 19.2533 178.951 18.56C179.644 17.8533 180.018 16.84 180.071 15.52C179.231 16.36 178.071 16.78 176.591 16.78C175.698 16.78 174.884 16.6 174.151 16.24C173.418 15.88 172.838 15.3733 172.411 14.72C171.984 14.0533 171.771 13.2867 171.771 12.42C171.771 11.4867 172.004 10.6667 172.471 9.96C172.938 9.25333 173.571 8.71333 174.371 8.34C175.184 7.95333 176.084 7.76 177.071 7.76ZM177.311 14.36C178.018 14.36 178.591 14.1667 179.031 13.78C179.484 13.38 179.711 12.8733 179.711 12.26C179.711 11.6467 179.491 11.1467 179.051 10.76C178.624 10.3733 178.031 10.18 177.271 10.18C176.578 10.18 176.011 10.3667 175.571 10.74C175.144 11.1133 174.931 11.62 174.931 12.26C174.931 12.9 175.144 13.4133 175.571 13.8C176.011 14.1733 176.591 14.36 177.311 14.36ZM189.685 13.26C191.659 13.26 193.112 13.6533 194.045 14.44C194.992 15.2267 195.465 16.28 195.465 17.6C195.465 18.4533 195.252 19.2333 194.825 19.94C194.399 20.6333 193.745 21.1933 192.865 21.62C191.999 22.0333 190.925 22.24 189.645 22.24C188.659 22.24 187.685 22.1133 186.725 21.86C185.779 21.5933 184.972 21.22 184.305 20.74L185.585 18.26C186.119 18.66 186.732 18.9733 187.425 19.2C188.119 19.4133 188.832 19.52 189.565 19.52C190.379 19.52 191.019 19.36 191.485 19.04C191.952 18.72 192.185 18.2733 192.185 17.7C192.185 17.1 191.939 16.6467 191.445 16.34C190.965 16.0333 190.125 15.88 188.925 15.88H185.345L186.065 8H194.605V10.6H188.765L188.545 13.26H189.685ZM197.04 15.12H202.7V17.62H197.04V15.12ZM217.393 19.06H215.113V22H211.953V19.06H204.413V16.88L211.013 8H214.413L208.293 16.42H212.053V13.8H215.113V16.42H217.393V19.06ZM223.204 7.76C225.164 7.76 226.697 8.36 227.804 9.56C228.911 10.7467 229.464 12.46 229.464 14.7C229.464 16.2867 229.164 17.6467 228.564 18.78C227.977 19.9133 227.144 20.7733 226.064 21.36C224.984 21.9467 223.737 22.24 222.324 22.24C221.577 22.24 220.864 22.16 220.184 22C219.504 21.8267 218.924 21.5867 218.444 21.28L219.644 18.9C220.324 19.3667 221.197 19.6 222.264 19.6C223.451 19.6 224.391 19.2533 225.084 18.56C225.777 17.8533 226.151 16.84 226.204 15.52C225.364 16.36 224.204 16.78 222.724 16.78C221.831 16.78 221.017 16.6 220.284 16.24C219.551 15.88 218.971 15.3733 218.544 14.72C218.117 14.0533 217.904 13.2867 217.904 12.42C217.904 11.4867 218.137 10.6667 218.604 9.96C219.071 9.25333 219.704 8.71333 220.504 8.34C221.317 7.95333 222.217 7.76 223.204 7.76ZM223.444 14.36C224.151 14.36 224.724 14.1667 225.164 13.78C225.617 13.38 225.844 12.8733 225.844 12.26C225.844 11.6467 225.624 11.1467 225.184 10.76C224.757 10.3733 224.164 10.18 223.404 10.18C222.711 10.18 222.144 10.3667 221.704 10.74C221.277 11.1133 221.064 11.62 221.064 12.26C221.064 12.9 221.277 13.4133 221.704 13.8C222.144 14.1733 222.724 14.36 223.444 14.36Z" fill="white"/>
<path d="M58.969 44.168V45H52.534V35.9H58.774V36.732H53.496V39.969H58.202V40.788H53.496V44.168H58.969ZM66.6849 41.958H65.2029V45H64.2799V41.958H62.7979L60.7049 45H59.5999L62.0569 41.477L59.7949 38.162H60.7959L62.7979 41.165H64.2799V38.162H65.2029V41.165H66.6849L68.6999 38.162H69.7009L67.4389 41.49L69.8959 45H68.7909L66.6849 41.958ZM77.1709 41.867H71.4509C71.5029 42.5777 71.7759 43.154 72.2699 43.596C72.7639 44.0293 73.3879 44.246 74.1419 44.246C74.5666 44.246 74.9566 44.1723 75.3119 44.025C75.6673 43.869 75.9749 43.6437 76.2349 43.349L76.7549 43.947C76.4516 44.311 76.0703 44.5883 75.6109 44.779C75.1603 44.9697 74.6619 45.065 74.1159 45.065C73.4139 45.065 72.7899 44.9177 72.2439 44.623C71.7066 44.3197 71.2863 43.9037 70.9829 43.375C70.6796 42.8463 70.5279 42.2483 70.5279 41.581C70.5279 40.9137 70.6709 40.3157 70.9569 39.787C71.2516 39.2583 71.6503 38.8467 72.1529 38.552C72.6643 38.2573 73.2363 38.11 73.8689 38.11C74.5016 38.11 75.0693 38.2573 75.5719 38.552C76.0746 38.8467 76.4689 39.2583 76.7549 39.787C77.0409 40.307 77.1839 40.905 77.1839 41.581L77.1709 41.867ZM73.8689 38.903C73.2103 38.903 72.6556 39.1153 72.2049 39.54C71.7629 39.956 71.5116 40.502 71.4509 41.178H76.2999C76.2393 40.502 75.9836 39.956 75.5329 39.54C75.0909 39.1153 74.5363 38.903 73.8689 38.903ZM85.7564 44.194V46.651H84.8854V45H78.7624V46.651H77.8914V44.194H78.2814C78.7407 44.168 79.0527 43.83 79.2174 43.18C79.3821 42.53 79.4947 41.62 79.5554 40.45L79.6464 38.162H84.6904V44.194H85.7564ZM80.4004 40.502C80.3571 41.4727 80.2747 42.2743 80.1534 42.907C80.0321 43.531 79.8154 43.96 79.5034 44.194H83.7674V38.981H80.4784L80.4004 40.502ZM87.5552 38.162H88.4782V41.191H92.7812V38.162H93.7042V45H92.7812V41.984H88.4782V45H87.5552V38.162ZM102.308 41.867H96.5876C96.6396 42.5777 96.9126 43.154 97.4066 43.596C97.9006 44.0293 98.5246 44.246 99.2786 44.246C99.7033 44.246 100.093 44.1723 100.449 44.025C100.804 43.869 101.112 43.6437 101.372 43.349L101.892 43.947C101.588 44.311 101.207 44.5883 100.748 44.779C100.297 44.9697 99.7986 45.065 99.2526 45.065C98.5506 45.065 97.9266 44.9177 97.3806 44.623C96.8433 44.3197 96.423 43.9037 96.1196 43.375C95.8163 42.8463 95.6646 42.2483 95.6646 41.581C95.6646 40.9137 95.8076 40.3157 96.0936 39.787C96.3883 39.2583 96.787 38.8467 97.2896 38.552C97.801 38.2573 98.373 38.11 99.0056 38.11C99.6383 38.11 100.206 38.2573 100.709 38.552C101.211 38.8467 101.606 39.2583 101.892 39.787C102.178 40.307 102.321 40.905 102.321 41.581L102.308 41.867ZM99.0056 38.903C98.347 38.903 97.7923 39.1153 97.3416 39.54C96.8996 39.956 96.6483 40.502 96.5876 41.178H101.437C101.376 40.502 101.12 39.956 100.67 39.54C100.228 39.1153 99.673 38.903 99.0056 38.903ZM108.719 41.464C109.646 41.6807 110.11 42.2397 110.11 43.141C110.11 43.739 109.889 44.1983 109.447 44.519C109.005 44.8397 108.346 45 107.471 45H104.364V38.162H107.38C108.16 38.162 108.771 38.3137 109.213 38.617C109.655 38.9203 109.876 39.3537 109.876 39.917C109.876 40.2897 109.772 40.6103 109.564 40.879C109.364 41.139 109.083 41.334 108.719 41.464ZM105.261 41.204H107.315C107.843 41.204 108.246 41.1043 108.524 40.905C108.81 40.7057 108.953 40.4153 108.953 40.034C108.953 39.6527 108.81 39.3667 108.524 39.176C108.246 38.9853 107.843 38.89 107.315 38.89H105.261V41.204ZM107.432 44.272C108.021 44.272 108.463 44.1767 108.758 43.986C109.052 43.7953 109.2 43.4963 109.2 43.089C109.2 42.6817 109.065 42.3827 108.797 42.192C108.528 41.9927 108.103 41.893 107.523 41.893H105.261V44.272H107.432ZM112.273 38.162H113.196V41.191H117.499V38.162H118.422V45H117.499V41.984H113.196V45H112.273V38.162ZM123.866 45.065C123.208 45.065 122.614 44.9177 122.085 44.623C121.557 44.3197 121.141 43.9037 120.837 43.375C120.534 42.8463 120.382 42.2483 120.382 41.581C120.382 40.9137 120.534 40.3157 120.837 39.787C121.141 39.2583 121.557 38.8467 122.085 38.552C122.614 38.2573 123.208 38.11 123.866 38.11C124.525 38.11 125.119 38.2573 125.647 38.552C126.176 38.8467 126.588 39.2583 126.882 39.787C127.186 40.3157 127.337 40.9137 127.337 41.581C127.337 42.2483 127.186 42.8463 126.882 43.375C126.588 43.9037 126.176 44.3197 125.647 44.623C125.119 44.9177 124.525 45.065 123.866 45.065ZM123.866 44.246C124.352 44.246 124.785 44.1377 125.166 43.921C125.556 43.6957 125.86 43.3793 126.076 42.972C126.293 42.5647 126.401 42.101 126.401 41.581C126.401 41.061 126.293 40.5973 126.076 40.19C125.86 39.7827 125.556 39.4707 125.166 39.254C124.785 39.0287 124.352 38.916 123.866 38.916C123.381 38.916 122.943 39.0287 122.553 39.254C122.172 39.4707 121.869 39.7827 121.643 40.19C121.427 40.5973 121.318 41.061 121.318 41.581C121.318 42.101 121.427 42.5647 121.643 42.972C121.869 43.3793 122.172 43.6957 122.553 43.921C122.943 44.1377 123.381 44.246 123.866 44.246ZM135.572 45.065C134.896 45.065 134.29 44.9177 133.752 44.623C133.224 44.3283 132.808 43.9167 132.504 43.388C132.201 42.8507 132.049 42.2483 132.049 41.581C132.049 40.9137 132.201 40.3157 132.504 39.787C132.808 39.2583 133.224 38.8467 133.752 38.552C134.29 38.2573 134.896 38.11 135.572 38.11C136.162 38.11 136.686 38.227 137.145 38.461C137.613 38.6863 137.982 39.02 138.25 39.462L137.561 39.93C137.336 39.592 137.05 39.3407 136.703 39.176C136.357 39.0027 135.98 38.916 135.572 38.916C135.078 38.916 134.632 39.0287 134.233 39.254C133.843 39.4707 133.536 39.7827 133.31 40.19C133.094 40.5973 132.985 41.061 132.985 41.581C132.985 42.1097 133.094 42.5777 133.31 42.985C133.536 43.3837 133.843 43.6957 134.233 43.921C134.632 44.1377 135.078 44.246 135.572 44.246C135.98 44.246 136.357 44.1637 136.703 43.999C137.05 43.8343 137.336 43.583 137.561 43.245L138.25 43.713C137.982 44.155 137.613 44.493 137.145 44.727C136.677 44.9523 136.153 45.065 135.572 45.065ZM145.637 35.822C146.842 35.822 147.765 36.2207 148.406 37.018C149.047 37.8067 149.368 38.9247 149.368 40.372C149.368 41.386 149.195 42.244 148.848 42.946C148.501 43.648 148.016 44.181 147.392 44.545C146.768 44.9003 146.04 45.078 145.208 45.078C144.307 45.078 143.587 44.9133 143.05 44.584L143.427 43.83C143.86 44.116 144.45 44.259 145.195 44.259C146.2 44.259 146.989 43.9427 147.561 43.31C148.133 42.6687 148.419 41.7413 148.419 40.528C148.419 40.3027 148.406 40.0557 148.38 39.787C148.155 40.281 147.795 40.6667 147.301 40.944C146.807 41.2127 146.239 41.347 145.598 41.347C145 41.347 144.467 41.2343 143.999 41.009C143.54 40.7837 143.18 40.4673 142.92 40.06C142.66 39.644 142.53 39.163 142.53 38.617C142.53 38.0623 142.664 37.5727 142.933 37.148C143.202 36.7233 143.57 36.3983 144.038 36.173C144.515 35.939 145.048 35.822 145.637 35.822ZM145.741 40.554C146.2 40.554 146.603 40.4673 146.95 40.294C147.305 40.1207 147.583 39.8823 147.782 39.579C147.981 39.2757 148.081 38.9377 148.081 38.565C148.081 38.2183 147.986 37.8977 147.795 37.603C147.613 37.3083 147.34 37.07 146.976 36.888C146.612 36.706 146.179 36.615 145.676 36.615C145.017 36.615 144.48 36.797 144.064 37.161C143.657 37.5163 143.453 37.993 143.453 38.591C143.453 39.189 143.657 39.6657 144.064 40.021C144.48 40.3763 145.039 40.554 145.741 40.554ZM151.427 39.527C151.236 39.527 151.071 39.4577 150.933 39.319C150.803 39.1803 150.738 39.0113 150.738 38.812C150.738 38.6127 150.803 38.448 150.933 38.318C151.071 38.1793 151.236 38.11 151.427 38.11C151.617 38.11 151.782 38.1793 151.921 38.318C152.059 38.448 152.129 38.6127 152.129 38.812C152.129 39.0113 152.059 39.1803 151.921 39.319C151.782 39.4577 151.617 39.527 151.427 39.527ZM151.427 45.065C151.236 45.065 151.071 44.9957 150.933 44.857C150.803 44.7183 150.738 44.5493 150.738 44.35C150.738 44.1507 150.803 43.986 150.933 43.856C151.071 43.7173 151.236 43.648 151.427 43.648C151.617 43.648 151.782 43.7173 151.921 43.856C152.059 43.986 152.129 44.1507 152.129 44.35C152.129 44.5493 152.059 44.7183 151.921 44.857C151.782 44.9957 151.617 45.065 151.427 45.065ZM157.107 45.078C156.405 45.078 155.776 44.8917 155.222 44.519C154.676 44.1463 154.247 43.6133 153.935 42.92C153.631 42.218 153.48 41.3947 153.48 40.45C153.48 39.5053 153.631 38.6863 153.935 37.993C154.247 37.291 154.676 36.7537 155.222 36.381C155.776 36.0083 156.405 35.822 157.107 35.822C157.809 35.822 158.433 36.0083 158.979 36.381C159.533 36.7537 159.967 37.291 160.279 37.993C160.591 38.6863 160.747 39.5053 160.747 40.45C160.747 41.3947 160.591 42.218 160.279 42.92C159.967 43.6133 159.533 44.1463 158.979 44.519C158.433 44.8917 157.809 45.078 157.107 45.078ZM157.107 44.22C157.635 44.22 158.099 44.0727 158.498 43.778C158.905 43.4833 159.221 43.0543 159.447 42.491C159.672 41.9277 159.785 41.2473 159.785 40.45C159.785 39.6527 159.672 38.9723 159.447 38.409C159.221 37.8457 158.905 37.4167 158.498 37.122C158.099 36.8273 157.635 36.68 157.107 36.68C156.578 36.68 156.11 36.8273 155.703 37.122C155.304 37.4167 154.992 37.8457 154.767 38.409C154.541 38.9723 154.429 39.6527 154.429 40.45C154.429 41.2473 154.541 41.9277 154.767 42.491C154.992 43.0543 155.304 43.4833 155.703 43.778C156.11 44.0727 156.578 44.22 157.107 44.22ZM165.714 45.078C165.012 45.078 164.384 44.8917 163.829 44.519C163.283 44.1463 162.854 43.6133 162.542 42.92C162.239 42.218 162.087 41.3947 162.087 40.45C162.087 39.5053 162.239 38.6863 162.542 37.993C162.854 37.291 163.283 36.7537 163.829 36.381C164.384 36.0083 165.012 35.822 165.714 35.822C166.416 35.822 167.04 36.0083 167.586 36.381C168.141 36.7537 168.574 37.291 168.886 37.993C169.198 38.6863 169.354 39.5053 169.354 40.45C169.354 41.3947 169.198 42.218 168.886 42.92C168.574 43.6133 168.141 44.1463 167.586 44.519C167.04 44.8917 166.416 45.078 165.714 45.078ZM165.714 44.22C166.243 44.22 166.706 44.0727 167.105 43.778C167.512 43.4833 167.829 43.0543 168.054 42.491C168.279 41.9277 168.392 41.2473 168.392 40.45C168.392 39.6527 168.279 38.9723 168.054 38.409C167.829 37.8457 167.512 37.4167 167.105 37.122C166.706 36.8273 166.243 36.68 165.714 36.68C165.185 36.68 164.717 36.8273 164.31 37.122C163.911 37.4167 163.599 37.8457 163.374 38.409C163.149 38.9723 163.036 39.6527 163.036 40.45C163.036 41.2473 163.149 41.9277 163.374 42.491C163.599 43.0543 163.911 43.4833 164.31 43.778C164.717 44.0727 165.185 44.22 165.714 44.22ZM181.403 44.194V46.651H180.532V45H174.409V46.651H173.538V44.194H173.928C174.387 44.168 174.699 43.83 174.864 43.18C175.029 42.53 175.141 41.62 175.202 40.45L175.293 38.162H180.337V44.194H181.403ZM176.047 40.502C176.004 41.4727 175.921 42.2743 175.8 42.907C175.679 43.531 175.462 43.96 175.15 44.194H179.414V38.981H176.125L176.047 40.502ZM186.023 45.065C185.364 45.065 184.77 44.9177 184.242 44.623C183.713 44.3197 183.297 43.9037 182.994 43.375C182.69 42.8463 182.539 42.2483 182.539 41.581C182.539 40.9137 182.69 40.3157 182.994 39.787C183.297 39.2583 183.713 38.8467 184.242 38.552C184.77 38.2573 185.364 38.11 186.023 38.11C186.681 38.11 187.275 38.2573 187.804 38.552C188.332 38.8467 188.744 39.2583 189.039 39.787C189.342 40.3157 189.494 40.9137 189.494 41.581C189.494 42.2483 189.342 42.8463 189.039 43.375C188.744 43.9037 188.332 44.3197 187.804 44.623C187.275 44.9177 186.681 45.065 186.023 45.065ZM186.023 44.246C186.508 44.246 186.941 44.1377 187.323 43.921C187.713 43.6957 188.016 43.3793 188.233 42.972C188.449 42.5647 188.558 42.101 188.558 41.581C188.558 41.061 188.449 40.5973 188.233 40.19C188.016 39.7827 187.713 39.4707 187.323 39.254C186.941 39.0287 186.508 38.916 186.023 38.916C185.537 38.916 185.1 39.0287 184.71 39.254C184.328 39.4707 184.025 39.7827 183.8 40.19C183.583 40.5973 183.475 41.061 183.475 41.581C183.475 42.101 183.583 42.5647 183.8 42.972C184.025 43.3793 184.328 43.6957 184.71 43.921C185.1 44.1377 185.537 44.246 186.023 44.246ZM200.446 44.168V45H194.063V44.337L197.846 40.632C198.322 40.164 198.643 39.761 198.808 39.423C198.981 39.0763 199.068 38.7297 199.068 38.383C199.068 37.8457 198.881 37.4297 198.509 37.135C198.145 36.8317 197.62 36.68 196.936 36.68C195.87 36.68 195.042 37.018 194.453 37.694L193.79 37.122C194.145 36.706 194.596 36.3853 195.142 36.16C195.696 35.9347 196.32 35.822 197.014 35.822C197.941 35.822 198.673 36.043 199.211 36.485C199.757 36.9183 200.03 37.5163 200.03 38.279C200.03 38.747 199.926 39.1977 199.718 39.631C199.51 40.0643 199.115 40.5627 198.535 41.126L195.441 44.168H200.446ZM205.197 45.078C204.495 45.078 203.866 44.8917 203.312 44.519C202.766 44.1463 202.337 43.6133 202.025 42.92C201.721 42.218 201.57 41.3947 201.57 40.45C201.57 39.5053 201.721 38.6863 202.025 37.993C202.337 37.291 202.766 36.7537 203.312 36.381C203.866 36.0083 204.495 35.822 205.197 35.822C205.899 35.822 206.523 36.0083 207.069 36.381C207.623 36.7537 208.057 37.291 208.369 37.993C208.681 38.6863 208.837 39.5053 208.837 40.45C208.837 41.3947 208.681 42.218 208.369 42.92C208.057 43.6133 207.623 44.1463 207.069 44.519C206.523 44.8917 205.899 45.078 205.197 45.078ZM205.197 44.22C205.725 44.22 206.189 44.0727 206.588 43.778C206.995 43.4833 207.311 43.0543 207.537 42.491C207.762 41.9277 207.875 41.2473 207.875 40.45C207.875 39.6527 207.762 38.9723 207.537 38.409C207.311 37.8457 206.995 37.4167 206.588 37.122C206.189 36.8273 205.725 36.68 205.197 36.68C204.668 36.68 204.2 36.8273 203.793 37.122C203.394 37.4167 203.082 37.8457 202.857 38.409C202.631 38.9723 202.519 39.6527 202.519 40.45C202.519 41.2473 202.631 41.9277 202.857 42.491C203.082 43.0543 203.394 43.4833 203.793 43.778C204.2 44.0727 204.668 44.22 205.197 44.22ZM210.879 39.527C210.688 39.527 210.524 39.4577 210.385 39.319C210.255 39.1803 210.19 39.0113 210.19 38.812C210.19 38.6127 210.255 38.448 210.385 38.318C210.524 38.1793 210.688 38.11 210.879 38.11C211.07 38.11 211.234 38.1793 211.373 38.318C211.512 38.448 211.581 38.6127 211.581 38.812C211.581 39.0113 211.512 39.1803 211.373 39.319C211.234 39.4577 211.07 39.527 210.879 39.527ZM210.879 45.065C210.688 45.065 210.524 44.9957 210.385 44.857C210.255 44.7183 210.19 44.5493 210.19 44.35C210.19 44.1507 210.255 43.986 210.385 43.856C210.524 43.7173 210.688 43.648 210.879 43.648C211.07 43.648 211.234 43.7173 211.373 43.856C211.512 43.986 211.581 44.1507 211.581 44.35C211.581 44.5493 211.512 44.7183 211.373 44.857C211.234 44.9957 211.07 45.065 210.879 45.065ZM216.559 45.078C215.857 45.078 215.229 44.8917 214.674 44.519C214.128 44.1463 213.699 43.6133 213.387 42.92C213.084 42.218 212.932 41.3947 212.932 40.45C212.932 39.5053 213.084 38.6863 213.387 37.993C213.699 37.291 214.128 36.7537 214.674 36.381C215.229 36.0083 215.857 35.822 216.559 35.822C217.261 35.822 217.885 36.0083 218.431 36.381C218.986 36.7537 219.419 37.291 219.731 37.993C220.043 38.6863 220.199 39.5053 220.199 40.45C220.199 41.3947 220.043 42.218 219.731 42.92C219.419 43.6133 218.986 44.1463 218.431 44.519C217.885 44.8917 217.261 45.078 216.559 45.078ZM216.559 44.22C217.088 44.22 217.551 44.0727 217.95 43.778C218.357 43.4833 218.674 43.0543 218.899 42.491C219.124 41.9277 219.237 41.2473 219.237 40.45C219.237 39.6527 219.124 38.9723 218.899 38.409C218.674 37.8457 218.357 37.4167 217.95 37.122C217.551 36.8273 217.088 36.68 216.559 36.68C216.03 36.68 215.562 36.8273 215.155 37.122C214.756 37.4167 214.444 37.8457 214.219 38.409C213.994 38.9723 213.881 39.6527 213.881 40.45C213.881 41.2473 213.994 41.9277 214.219 42.491C214.444 43.0543 214.756 43.4833 215.155 43.778C215.562 44.0727 216.03 44.22 216.559 44.22ZM225.166 45.078C224.464 45.078 223.836 44.8917 223.281 44.519C222.735 44.1463 222.306 43.6133 221.994 42.92C221.691 42.218 221.539 41.3947 221.539 40.45C221.539 39.5053 221.691 38.6863 221.994 37.993C222.306 37.291 222.735 36.7537 223.281 36.381C223.836 36.0083 224.464 35.822 225.166 35.822C225.868 35.822 226.492 36.0083 227.038 36.381C227.593 36.7537 228.026 37.291 228.338 37.993C228.65 38.6863 228.806 39.5053 228.806 40.45C228.806 41.3947 228.65 42.218 228.338 42.92C228.026 43.6133 227.593 44.1463 227.038 44.519C226.492 44.8917 225.868 45.078 225.166 45.078ZM225.166 44.22C225.695 44.22 226.159 44.0727 226.557 43.778C226.965 43.4833 227.281 43.0543 227.506 42.491C227.732 41.9277 227.844 41.2473 227.844 40.45C227.844 39.6527 227.732 38.9723 227.506 38.409C227.281 37.8457 226.965 37.4167 226.557 37.122C226.159 36.8273 225.695 36.68 225.166 36.68C224.638 36.68 224.17 36.8273 223.762 37.122C223.364 37.4167 223.052 37.8457 222.826 38.409C222.601 38.9723 222.488 39.6527 222.488 40.45C222.488 41.2473 222.601 41.9277 222.826 42.491C223.052 43.0543 223.364 43.4833 223.762 43.778C224.17 44.0727 224.638 44.22 225.166 44.22Z" fill="white"/>
</g>
<defs>
<clipPath id="clip0_0_424">
<rect width="231" height="51" fill="white"/>
</clipPath>
</defs>
</svg>
